<?xml version="1.0" encoding="utf-8"?>
<svg width="524px" height="524px" viewBox="0 0 524 524" version="1.1" xmlns:xlink="http://www.w3.org/1999/xlink" xmlns="http://www.w3.org/2000/svg">
  <defs>
    <path d="M512 0L512 0L512 512L0 512L0 0L512 0Z" id="path_1" />
    <path d="M16 256C16 123.452 123.452 16 256 16C388.548 16 496 123.452 496 256C496 388.548 388.548 496 256 496C123.452 496 16 388.548 16 256Z" id="path_2" />
    <clipPath id="clip_1">
      <use xlink:href="#path_1" />
    </clipPath>
  </defs>
  <g id="Frame" clip-path="url(#clip_1)" transform="translate(6 4)">
    <path d="M512 0L512 0L512 512L0 512L0 0L512 0Z" id="Frame" fill="none" stroke="none" />
    <g id="Oval">
      <use xlink:href="#path_2" fill="none" stroke="#000000" stroke-width="18" />
    </g>
    <path d="M103.938 123.438C99.5313 124.469 102.344 124.281 98.6875 124.75C83.0313 128.125 94.6563 131.125 103.938 123.438L103.938 123.438ZM379.281 129.719C380.406 128.969 384.344 125.125 372.062 121.375C372.813 125.219 369.531 124.844 369.531 127C378.625 135.25 382.375 149.594 394 152.594C396.25 142.281 383.688 137.219 379.281 129.719L379.281 129.719ZM95.5938 120.438C97 128.781 103.281 111.625 103.375 105.531C100.938 106.938 98.5 108.344 95.9688 109.469C101.875 112.469 96.7188 115.656 90.3438 120.438C77.4063 136.563 102.438 107.875 95.5938 120.438L95.5938 120.438ZM256 16C123.438 16 16 123.438 16 256C16 388.469 123.438 496 256 496C388.563 496 496 388.469 496 256C496 123.438 388.563 16 256 16L256 16ZM262.375 96.4375L263.5 96.8125C259 102.625 286.938 119.594 266.875 121C248.125 126.344 274.75 116.125 260.219 117.906C267.906 107.219 254.125 107.031 262.375 96.4375L262.375 96.4375ZM148.563 111.812C141.813 106.187 120.625 119.5 128.031 116.312C146.406 109.094 129.25 117.062 133.563 125.687C129.625 133.844 132.25 117.625 122.5 127.281C115.469 128.875 98.2188 144.812 100.375 139.937C99.8125 147.531 79.8438 156.531 77.125 169.187C70.5625 186.719 75.5313 168.531 74.3125 161.687C64.9375 149.781 47.875 181.844 52.9375 194.5C61.4688 179.5 60.8125 192.906 54.625 199.562C60.9063 211.094 48.9063 226.094 60.8125 234.625C66.0625 235.844 76.5625 217 71.9688 236.594C75.1563 219.625 80.7813 240.625 89.875 235.937C90.4375 244.844 95.9688 240.719 97.1875 251.5C112.375 250.375 126.25 276.062 108.156 280.937C110.875 280.187 116.219 284.969 122.406 281.312C132.906 289.656 160.562 290.687 161.313 311.312C142.281 320.406 156.625 345.344 140.125 354.25C121.187 351.437 133.656 377.594 125.688 374.594C128.875 393.437 106.563 372.156 115.188 382.562C131.031 392.312 108.25 390.344 115.375 397.469C107.406 395.781 120.344 412.281 122.5 418.375C133.938 436.937 112.656 414.25 106.375 408.062C100.375 396.062 86.2188 373.094 82.2813 354.25C80.0313 326.875 58.8438 308.5 53.9688 281.781C49.0938 266.875 67.375 242.969 57.5313 234.625C49 227.969 52.4688 205.187 47.4063 193.187C60.0625 138.344 100.281 92.125 148.563 64.75C143.594 68.4063 176.969 55.2813 173.125 58.4688C172.094 60.8125 192.625 49.5625 205 47.875C203.687 48.0625 172.844 59.125 181.375 57.625C168.156 64.0938 180.063 60.4375 186.625 57.1563C173.5 66.8125 163.375 64.0938 148.469 72.625C133.469 76.5625 136.563 92.125 125.875 99.9062C132.156 101.031 147.906 83.6875 157.094 77.5937C178.188 67.375 146.406 96.1562 166.469 83.7813C159.719 90.0625 161.125 100.094 157 102.906C154.938 102.344 165.156 107.781 148.563 111.812L148.563 111.812ZM181.375 68.6875C179.219 71.5938 176.219 77.875 174.438 74.0313C172 75.25 171.063 80.5 166.469 76.2813C169.188 74.3125 172 69.625 166.656 72.5313C169.094 69.9063 190.844 62.5 189.625 59.6875C193.469 57.25 193.094 56.0313 188.688 57.5313C186.438 56.7813 194.031 50.4063 204.156 49.5625C205.563 49.5625 206.125 50.5 203.594 50.2188C188.313 54.9063 194.875 53.5938 205.188 50.2188C201.25 52.4688 198.531 53.125 197.875 54.1563C208.188 50.4063 197.312 56.875 199.656 56.4063C196.75 57.9063 200.125 58.375 194.5 60.5313C195.531 59.6875 185.313 66.625 191.406 64.5625C185.5 70.1875 182.875 70.2813 181.375 68.6875L181.375 68.6875ZM190.375 82.0938C190.562 73.0938 203.5 67.375 201.906 66.9063C217.844 59.4063 196.375 67.1875 208.937 60.4375C213.625 59.9688 223.562 44.9688 237.344 44.0313C252.531 39.4375 245.5 44.3125 256.75 40L254.5 41.875C252.531 42.1563 254.969 45.625 247.844 50.875C247.094 59.0313 234.25 55.2813 240.625 64C236.5 58.0938 230.312 63.8125 238.094 64.375C229.75 70.75 210.344 71.875 201.062 82.4688C195.062 91.0938 189.531 88.375 190.375 82.0938L190.375 82.0938ZM257.031 112.094C250.656 127.469 244.469 109.844 255.719 107.031C258.531 108.531 259.656 109 257.031 112.094L257.031 112.094ZM233.031 81.3438C231.156 74.4063 232.656 78.0625 243.812 74.7813C251.5 80.3125 236.969 83.9688 233.031 81.3438L233.031 81.3438ZM407.594 356.5C398.781 341.313 418.281 327.25 424.844 314.5C424 329.406 422.125 344.125 407.594 356.5L407.594 356.5ZM440.781 182.969C431.219 183.719 422.594 185.969 413.969 180.531C394.094 158.781 417.625 205.094 424.188 186.156C447.813 195.156 423.813 233.969 408.906 229.937C400.563 211.938 390.25 192.156 372.063 183.344C386.031 198.813 392.969 217.844 407.969 231.813C409 251.313 428.781 224.688 427.563 239.781C429.438 265.75 398.219 281.313 403.656 307.375C415.281 331.094 381.25 335.406 385.094 356.688C371.406 371.969 356.781 392.594 332.219 389.313C332.219 376.375 325.656 365.406 324.156 352.094C310.844 335.219 338.219 317.125 321.25 299.5C301.656 295.094 325.281 268.094 305.125 270.625C293.031 258.531 275.313 270.25 257.969 270.344C236.219 272.406 213.812 243.625 223.469 223.281C215.781 202.094 247.844 195.906 248.687 177.25C264.063 164.406 285.906 166 306.719 163C305.219 177.906 320.969 178 332.875 182.969C339.531 166.844 360.25 185.594 374.406 175.375C379.281 151.563 360.625 165.906 349.938 158.313C337 139.375 377.594 148.563 373.375 138.625C357.625 138.531 366.531 119.219 355.375 130C365.406 131.781 353.594 139.656 353.875 130.656C338.688 126.25 353.313 147.906 345.625 149.969C333.906 145.094 339.438 155.5 340.656 157.094C335.594 168.063 329.406 140.969 315.063 141.719C300.812 128.688 309.438 147.625 321.813 150.719C319.187 151.469 323.312 162.25 320.031 157.656C309.812 143.594 290.406 134.219 278.875 151.469C277.656 167.594 244.844 172.188 250.094 153.344C242.406 133.844 273.906 152.781 271 137.219C250.75 123.813 276.531 128.125 283.375 115.563C298.937 116.031 284.031 102.812 291.344 98.9688C290.594 113.313 303.25 110.594 313.281 107.875C310.844 99.625 319.281 99.9063 314.125 93.0625C337.375 83.7813 296.406 97.375 304.656 77.0313C294.625 70.0938 300.438 92.3125 304.656 94.6563C304.938 101.5 299.125 109.938 291.156 95.5938C279.531 103.188 280.75 87.9062 280 89.5C278.688 83.5938 288.813 83.3125 288.906 73C288.063 66.4375 288.25 62.9687 292.938 62.5938C293.312 63.5313 312.156 63.8125 318.813 71.5938C300.625 67.9375 316.094 74.5938 324.25 78.3438C315.531 71.5 327.719 78.3438 320.594 70.5625C323.406 71.125 312.813 59.875 323.688 69.7188C317.781 62.6875 335.219 64.75 324.906 59.5C340 63.7188 331.094 59.875 322.188 56.0313C297.625 41.4063 365.594 75.8125 337.844 60.5313C355.563 64.375 299.969 46.8438 325.281 54.5313C315.625 50.3125 325 52.6562 333.719 55.375C318.063 50.5 294.625 41.4063 295.563 41.0313C301 41.4063 306.344 42.625 311.5 44.125C327.531 48.9062 306.906 43 311.313 43.0938C366.437 57.25 414.719 94.1875 444.063 142.469C450.906 149.688 469.562 197.406 459.812 176.219C464.219 193.094 464.875 211.281 467.219 228.531C462.344 223.094 456.906 203.031 452.219 191.875C450.25 196.188 448 185.781 440.781 182.969L440.781 182.969Z" id="Group" fill="#FFFFFF" fill-rule="evenodd" stroke="none" />
  </g>
</svg>