<svg width="44" height="56" viewBox="0 0 44 56" fill="none" xmlns="http://www.w3.org/2000/svg">
<path d="M22.0002 0C16.1674 0.0066169 10.5754 2.32662 6.45102 6.45102C2.32661 10.5754 0.0066169 16.1674 0 22.0002C0 40.8254 20.0002 55.0431 20.8527 55.6381C21.189 55.8736 21.5896 56 22.0002 56C22.4108 56 22.8114 55.8736 23.1477 55.6381C24.0002 55.0431 44.0004 40.8254 44.0004 22.0002C43.9938 16.1674 41.6738 10.5754 37.5494 6.45102C33.425 2.32662 27.833 0.0066169 22.0002 0Z" fill="#3A86FF"/>
<path d="M22 25C20.9 25 19.9583 24.6083 19.175 23.825C18.3917 23.0417 18 22.1 18 21C18 19.9 18.3917 18.9583 19.175 18.175C19.9583 17.3917 20.9 17 22 17C23.1 17 24.0417 17.3917 24.825 18.175C25.6083 18.9583 26 19.9 26 21C26 22.1 25.6083 23.0417 24.825 23.825C24.0417 24.6083 23.1 25 22 25ZM14 33V30.2C14 29.6333 14.146 29.1123 14.438 28.637C14.73 28.1617 15.1173 27.7993 15.6 27.55C16.6333 27.0333 17.6833 26.6457 18.75 26.387C19.8167 26.1283 20.9 25.9993 22 26C23.1 26 24.1833 26.1293 25.25 26.388C26.3167 26.6467 27.3667 27.034 28.4 27.55C28.8833 27.8 29.271 28.1627 29.563 28.638C29.855 29.1133 30.0007 29.634 30 30.2V33H14Z" fill="#F7F4F4"/>
</svg>
