<svg width="24" height="24" viewBox="0 0 24 24" fill="none" xmlns="http://www.w3.org/2000/svg">
<path d="M22.235 18.8349C22.5235 18.1929 22.3852 17.4394 21.8875 16.9417L16.1198 11.174L19.4171 7.87675C19.6245 7.66662 19.7718 7.40461 19.8434 7.11811C19.915 6.83161 19.9083 6.53114 19.8241 6.2481C19.7399 5.96506 19.5811 5.70984 19.3645 5.50912C19.1479 5.3084 18.8814 5.16955 18.5927 5.10707C12.8861 2.84831 9.54503 2.0278 3.32657 1.33174C2.73739 1.2658 2.16801 1.36568 1.76684 1.76684C1.36568 2.16801 1.31322 2.78417 1.33174 3.32657C1.55129 9.75868 2.3931 13.0994 5.10707 18.5927C5.17835 18.8761 5.32364 19.1354 5.52806 19.3441C5.73249 19.5528 5.9887 19.7035 6.27049 19.7806C6.55227 19.8578 6.84949 19.8587 7.13173 19.7832C7.41396 19.7077 7.67108 19.5586 7.87675 19.3511L11.174 16.0539L17.0829 21.9628C17.5008 22.3807 18.1236 22.5175 18.6781 22.3132V22.3132C20.2063 21.7502 21.4436 20.5959 22.1112 19.1104L22.235 18.8349Z" fill="#D7E0FF"/>
<path d="M22.235 18.8349C22.5235 18.1929 22.3852 17.4394 21.8875 16.9417L16.1198 11.174L19.4171 7.87675C19.6245 7.66662 19.7718 7.40461 19.8434 7.11811C19.915 6.83161 19.9083 6.53114 19.8241 6.2481C19.7399 5.96506 19.5811 5.70984 19.3645 5.50912C19.1479 5.3084 18.8814 5.16955 18.5927 5.10707C12.8861 2.84831 9.54503 2.0278 3.32657 1.33174C2.73739 1.2658 2.16801 1.36568 1.76684 1.76684C1.36568 2.16801 1.31322 2.78417 1.33174 3.32657C1.55129 9.75868 2.3931 13.0994 5.10707 18.5927C5.17835 18.8761 5.32364 19.1354 5.52806 19.3441C5.73249 19.5528 5.9887 19.7035 6.27049 19.7806C6.55227 19.8578 6.84949 19.8587 7.13173 19.7832C7.41396 19.7077 7.67108 19.5586 7.87675 19.3511L11.174 16.0539L17.0829 21.9628C17.5008 22.3807 18.1236 22.5175 18.6781 22.3132V22.3132C20.2063 21.7502 21.4436 20.5959 22.1112 19.1104L22.235 18.8349Z" stroke="#4147D5" stroke-width="2.57143" stroke-linecap="round" stroke-linejoin="round"/>
</svg>
