<svg width="24" height="24" viewBox="0 0 24 24" fill="none" xmlns="http://www.w3.org/2000/svg">
<path d="M20.8518 16.7143C20.8518 19.2857 20.1862 20.9843 19.1375 22.7143L6.2804 22.7143L3.4545 19.8884C1.85594 18.2898 2.21497 15.6088 4.17782 14.4872L6.2804 13.2857L6.2804 4.28572C6.2804 2.62887 7.62354 1.28572 9.28039 1.28572C10.9372 1.28572 12.2804 2.62887 12.2804 4.28572L12.2804 9.9042C15.8767 10.2778 20.8518 11.5714 20.8518 16.7143Z" fill="#D7E0FF"/>
<path d="M19.1375 22.7143C20.1862 20.9843 20.8518 19.2857 20.8518 16.7143C20.8518 11.5714 15.8767 10.2778 12.2804 9.9042L12.2804 4.28572C12.2804 2.62887 10.9372 1.28572 9.28039 1.28572V1.28572C7.62354 1.28572 6.2804 2.62887 6.2804 4.28572L6.2804 13.2857L4.17782 14.4872C2.21497 15.6088 1.85594 18.2898 3.4545 19.8884L6.2804 22.7143" stroke="#4147D5" stroke-width="2.57143" stroke-linecap="round" stroke-linejoin="round"/>
</svg>
