<svg width="167" height="198" viewBox="0 0 167 198" fill="none" xmlns="http://www.w3.org/2000/svg">
<path d="M165.326 100.652L166.352 125.452L163.786 147.008L157.971 164.29L148.906 174.88L138.302 184.116L125.774 197.701H79.774L41.4976 171.631L9.24168 147.008L4.01443 138.908L0.791504 130.875L2.03691 123.559L5.92273 118.952L12.3012 118.38L19.9475 121.176L56.5552 145.858L79.4422 156.854L100.156 161.202L118.312 141L131.481 110.825L127.032 82.6316L115.809 54.8346L104.03 33.6028L101.03 15.6018L102.253 1.71203L107.697 0.822998L115.809 6.26792L127.032 16.2684L134.997 28.2898L156.572 67.2154L165.326 100.652Z" fill="black"/>
</svg>
