<svg width="439" height="112" viewBox="0 0 439 112" fill="none" xmlns="http://www.w3.org/2000/svg">
<path d="M432.299 0.158936L420.356 10.111L402.066 24.4463L387.325 34.2738L367.592 46.1138L344.825 57.4975L322.621 67.8591L295.508 77.2254L270.774 84.1508L240.017 91.0962L211.757 96.0539L188.011 99.0222L153.321 101.5H118.586L89.7386 100.505L65.3833 99.0142L38.599 96.5341L15.3237 93.0676L1.91028 90.5836L0.0893555 100.416L13.5894 102.916C13.6472 102.927 13.7051 102.937 13.7633 102.945L37.2632 106.445C37.3548 106.459 37.4467 106.47 37.5388 106.479L64.5388 108.979C64.5906 108.984 64.6424 108.988 64.6943 108.991L89.1943 110.491C89.2386 110.493 89.2831 110.496 89.3275 110.497L118.328 111.497C118.385 111.499 118.442 111.5 118.5 111.5H153.5C153.619 111.5 153.737 111.496 153.856 111.487L188.856 108.987C188.944 108.981 189.032 108.972 189.12 108.961L213.12 105.961C213.166 105.956 213.212 105.949 213.258 105.942L213.297 105.936C213.319 105.932 213.342 105.929 213.364 105.925L241.864 100.925C241.943 100.911 242.022 100.895 242.101 100.877L273.101 93.8772C273.184 93.8586 273.266 93.8377 273.348 93.8148L298.348 86.8148C298.444 86.7881 298.539 86.7584 298.632 86.726L326.132 77.226C326.222 77.1952 326.31 77.1619 326.397 77.1261C326.47 77.0961 326.543 77.0644 326.614 77.0309L349.114 66.5309C349.137 66.5206 349.159 66.51 349.181 66.4993C349.199 66.4904 349.218 66.4813 349.236 66.4722L372.236 54.9722C372.35 54.9149 372.463 54.8533 372.572 54.7875L392.572 42.7875C392.613 42.7633 392.653 42.7386 392.692 42.7132C392.719 42.6958 392.746 42.6782 392.773 42.6603L407.773 32.6603C407.88 32.5893 407.984 32.5143 408.084 32.4353L426.584 17.9353C426.608 17.9164 426.632 17.8972 426.656 17.8779C426.671 17.8657 426.686 17.8535 426.701 17.8411L438.701 7.84113L432.299 0.158936Z" fill="black"/>
</svg>
