<svg width="794" height="498" viewBox="0 0 794 498" fill="none" xmlns="http://www.w3.org/2000/svg">
<path d="M6.5 1.00029C6.88348 0.985564 6.37203 1.00029 6.5 1.00029L37.7847 1.0002C37.9509 1.0002 37.6194 0.983666 37.7847 1.0002L39.5 1C39.5182 1.00182 41.4818 1.49798 41.5 1.5L44 2C44.0227 2.00252 44.8798 2.10998 44 2L47.0862 2.53465L51.5522 3.03087C51.5748 3.03339 51.5975 3.03607 51.6202 3.0389L63.5589 4.53125L68.4975 5.0251C68.5385 5.0292 68.5793 5.0338 68.6202 5.0389L72.6202 5.5389C72.6492 5.54253 72.6782 5.54641 72.7071 5.55054L76.1637 6.04434L84.1202 7.0389C84.1492 7.04253 84.1782 7.04641 84.2071 7.05054L87.6637 7.54434L95.6202 8.5389C95.6876 8.54734 95.7549 8.55714 95.822 8.56832L101.822 9.56832C101.875 9.57716 101.928 9.58685 101.981 9.59739L111.902 11.5816L117.822 12.5683C117.875 12.5772 117.928 12.5868 117.981 12.5974L127.938 14.5888L133.394 15.5809C133.423 15.5862 133.452 15.5917 133.481 15.5974L138.481 16.5974C138.558 16.6129 138.636 16.6303 138.713 16.6496L142.649 17.6336L151.585 19.6194C151.682 19.6409 151.778 19.6654 151.874 19.6927L158.794 21.6698L162.713 22.6496C162.767 22.663 162.82 22.6774 162.874 22.6927L169.874 24.6927L169.915 24.7048L169.937 24.7112L179.937 27.7112L179.97 27.7214L186.47 29.7214C186.507 29.7328 186.544 29.7446 186.581 29.7569L197.081 33.2569C197.124 33.2711 197.166 33.2859 197.209 33.3013L213.709 39.3013C213.738 39.3118 213.766 39.3225 213.795 39.3335L220.295 41.8335L220.321 41.8436L220.357 41.8579L230.357 45.8579C230.428 45.8864 230.499 45.9166 230.569 45.9484L252.531 55.9312L252.569 55.9484L261.531 59.9312C261.6 59.962 261.668 59.9943 261.736 60.0281L267.736 63.0281L267.78 63.0502L267.82 63.0711L278.32 68.5711L278.339 68.5814L286.788 73.0543L303.653 81.4868L314.569 86.4485L314.617 86.4707L314.664 86.4927L327.087 92.4558L355.442 104.892L376.342 113.352L400.681 122.789L424.976 130.723L448.755 137.658L459.548 140.111L459.608 140.125L466.335 141.566L470.12 142.039L468.88 151.962L464.88 151.462C464.736 151.444 464.594 151.42 464.452 151.389L457.452 149.889L457.418 149.882L457.392 149.876L446.392 147.376C446.294 147.354 446.197 147.328 446.1 147.3L422.1 140.3C422.07 140.292 422.04 140.283 422.011 140.273C421.99 140.267 421.969 140.26 421.948 140.253L397.448 132.253C397.419 132.244 397.39 132.234 397.361 132.224C397.304 132.204 397.248 132.184 397.192 132.162L372.692 122.662C372.67 122.653 372.647 122.644 372.624 122.635L351.624 114.135C351.597 114.124 351.569 114.113 351.542 114.101C351.525 114.094 351.508 114.087 351.492 114.079L322.992 101.579C322.94 101.556 322.888 101.533 322.836 101.508L310.383 95.5303L299.431 90.5521C299.397 90.5366 299.363 90.5207 299.329 90.5045C299.307 90.4939 299.286 90.4833 299.264 90.4724L282.264 81.9724C282.244 81.9622 282.223 81.9519 282.203 81.9415C282.189 81.9341 282.175 81.9267 282.161 81.9192L273.68 77.4295L273.661 77.4192L263.221 71.9511L257.366 69.0233L248.469 65.0694L248.431 65.0521L226.536 55.0998L216.674 51.1551L210.248 48.6835L193.855 42.7224L183.474 39.2621L177.063 37.2894L177.03 37.2792L167.095 34.2989L160.206 32.3308L156.287 31.351C156.269 31.3463 156.25 31.3415 156.231 31.3366C156.196 31.3274 156.161 31.3179 156.126 31.3079L149.27 29.3489L140.415 27.3812C140.373 27.3717 140.33 27.3616 140.287 27.351L136.403 26.3799L131.562 25.4118L126.106 24.4196C126.077 24.4144 126.048 24.4089 126.019 24.4032L116.098 22.419L110.178 21.4323C110.125 21.4234 110.072 21.4137 110.019 21.4032L100.098 19.419L94.2786 18.449L87 17.5392V281.586L93.5 286.5L126 310.5L158.5 332L179.5 346L218 368L255.5 388.5L284.5 400.5L320.5 412L348.5 419.5L379 425L409 429L447 431.5H499.5L522.5 429L556 425L588 419.5L614.5 414L640 407.5L669.5 398.5L693.5 389.5L729.5 374L750 362L794 332V498H87H0V7.00029L0.0386317 7.00251L0 1.00034L6.5 1.00029Z" fill="black"/>
</svg>
