<svg width="499" height="459" viewBox="0 0 499 459" fill="none" xmlns="http://www.w3.org/2000/svg">
<path d="M498.5 229.5C498.5 168.65 481.895 111.224 444.626 68.9438C407.262 26.5551 349.666 0 269 0H0V10H269C347.334 10 401.988 35.6949 437.124 75.5562C472.355 115.526 488.5 170.35 488.5 229.5C488.5 288.773 474.044 343.574 439.709 383.489C405.491 423.27 350.894 449 269 449H0.0012207C0.0012207 449 0 449 0 454C0 459 0.0012207 459 0.0012207 459H269C353.106 459 410.759 432.48 447.291 390.011C483.706 347.676 498.5 290.227 498.5 229.5Z" fill="#D9D9D9"/>
</svg>
