<svg width="499" height="459" viewBox="0 0 499 459" fill="none" xmlns="http://www.w3.org/2000/svg">
<path d="M0 229.5C0 168.65 16.6055 111.224 53.8741 68.9438C91.238 26.5551 148.834 0 229.5 0L498.499 0V10H229.5C151.166 10 96.512 35.6949 61.3759 75.5562C26.1445 115.526 10 170.35 10 229.5C10 288.773 24.4557 343.574 58.7905 383.489C93.0089 423.27 147.606 449 229.5 449H498.499C498.499 449 498.5 449 498.5 454C498.5 459 498.499 459 498.499 459H229.5C145.394 459 87.7411 432.48 51.2095 390.011C14.7943 347.676 0 290.227 0 229.5Z" fill="#FF0A0A"/>
</svg>
